<?xml version="1.0" encoding="utf-8"?>
<!-- Generator: Adobe Illustrator 21.0.0, SVG Export Plug-In . SVG Version: 6.00 Build 0)  -->
<svg version="1.1" id="Layer_1" xmlns="http://www.w3.org/2000/svg" xmlns:xlink="http://www.w3.org/1999/xlink" x="0px" y="0px"
	 viewBox="0 0 160 50" style="enable-background:new 0 0 160 50;" xml:space="preserve">
<style type="text/css">
	.st0{fill:#E5B5D1;}
	.st1{fill:#FFFBF9;}
	.st2{fill:#E8E3F1;}
	.st3{fill:#FCDEDE;}
	.st4{fill:none;stroke:#E5B5D1;stroke-width:2.7729;stroke-miterlimit:10;}
</style>
<g>
	<path class="st0" d="M58.4,27.3v5.2h-3.2V18h5.5c2.9,0,5,1.9,5,4.6c0,2.7-2,4.6-5,4.6H58.4z M60.3,24.5c1.2,0,2.1-0.7,2.1-1.8
		c0-1.2-0.8-1.9-2.1-1.9h-1.9v3.7H60.3z"/>
	<path class="st0" d="M79.5,17.7c4.1,0,7.5,3,7.5,7.6c0,4.6-3.5,7.6-7.5,7.6c-4.1,0-7.6-3-7.6-7.6C71.9,20.6,75.4,17.7,79.5,17.7z
		 M79.5,29.6c2,0,4.2-1.4,4.2-4.4c0-3-2.2-4.4-4.2-4.4c-2,0-4.2,1.4-4.2,4.4C75.3,28.3,77.4,29.6,79.5,29.6z"/>
	<path class="st0" d="M107.7,32.5v-9.6l-3.8,9.6h-2.6L97.5,23v9.5h-3.1V18h4.2l4,9.8l3.8-9.8h4.4v14.5H107.7z"/>
	<path class="st0" d="M119.1,32.5V18h3.3v14.5H119.1z"/>
	<path class="st0" d="M130.6,32.5V18h3.2v11.4h6.3v3.1H130.6z"/>
	<path class="st0" d="M144.3,18h3.8l3,5.4l3-5.4h3.6l-5.1,8.5v6.1h-3.2v-6.1L144.3,18z"/>
</g>
<g>
	<polygon class="st1" points="6.7,17.9 33.5,33.6 33.5,17.9 18.7,9.4 5.8,17.1 	"/>
	<polygon class="st2" points="19.2,43.4 19.2,26.2 33.3,34.2 	"/>
	<polygon class="st3" points="4.9,19.5 4.9,35 19.2,43.4 19.2,26.2 4.9,17.9 	"/>
	<g>
		<g>
			<g>
				<rect x="17.8" y="25" class="st0" width="2.8" height="17.1"/>
			</g>
		</g>
		<g>
			<g>
				<path class="st4" d="M33.5,17.9"/>
			</g>
		</g>
		<g>
			<g>
				<path class="st4" d="M19.2,26.2"/>
			</g>
		</g>
		<g>
			<g>
				
					<rect x="17.3" y="9.3" transform="matrix(0.5012 -0.8654 0.8654 0.5012 -12.5929 28.833)" class="st0" width="2.8" height="32"/>
			</g>
		</g>
	</g>
	<path class="st0" d="M21.9,9.6l4.4-2.6V3.9l0,0L19.2,8L12,3.9v3.2l4.4,2.5L3.5,17.1v18.5L19.2,45l15.7-10.7V17.1L21.9,9.6z
		 M32.1,32.9l-13,8.8L6.2,34V18.7l12.9-7.5l12.9,7.5V32.9z"/>
</g>
</svg>
