<?xml version="1.0" encoding="utf-8"?>
<!-- Generator: Adobe Illustrator 21.0.0, SVG Export Plug-In . SVG Version: 6.00 Build 0)  -->
<svg version="1.1" id="Layer_1" xmlns="http://www.w3.org/2000/svg" xmlns:xlink="http://www.w3.org/1999/xlink" x="0px" y="0px"
	 viewBox="0 0 380 122" style="enable-background:new 0 0 380 122;" xml:space="preserve">
<style type="text/css">
	.st0{enable-background:new    ;}
	.st1{fill:#5E5E60;}
	.st2{fill:none;stroke:#5E5E60;stroke-width:2.6675;stroke-linecap:round;stroke-linejoin:round;stroke-miterlimit:10;}
</style>
<g>
	<g class="st0">
		<path class="st1" d="M41.7,37.6l-9.5-0.2l-1.9,5l-5.8-0.1l9.7-24.4l6.4,0.1l8.7,24.8l-6-0.1L41.7,37.6z M34.1,32.5l6,0.1L37.3,24
			L34.1,32.5z"/>
		<path class="st1" d="M71,34l-1.9,0l-0.2,9.2L63.4,43l0.4-24.6l9.8,0.2c4.9,0.1,7.9,3.5,7.9,7.8c-0.1,3.3-1.9,5.8-5,6.9l4.8,10
			l-6-0.1L71,34z M72.3,29.3c2.3,0,3.5-1.2,3.5-2.9c0-1.8-1.2-3-3.4-3l-3.2-0.1l-0.1,6L72.3,29.3z"/>
		<path class="st1" d="M104.6,34l-2.8,3l-0.1,6.6l-5.5-0.1L96.6,19l5.5,0.1l-0.2,10.3l9.2-10.2l7.2,0.1l-9.8,10.5l9.4,14.1l-6.8-0.1
			L104.6,34z"/>
		<path class="st1" d="M163.7,27.5c-0.2-1.1-1.1-3.1-4-3.2c-2,0-3.4,1.2-3.4,2.6c0,1.2,0.7,2.1,2.4,2.4l3.3,0.7c4.7,0.9,7,4,7,7.5
			c-0.1,3.9-3.4,7.7-9.2,7.6c-6.8-0.1-9.6-4.6-9.9-8.1l5.1-1.1c0.2,2.3,1.7,4.3,5,4.3c2.2,0,3.5-1,3.5-2.5c0-1.2-1-2.2-2.6-2.5
			l-3.4-0.7c-4.2-0.9-6.6-3.7-6.6-7.3c0.1-4.7,4.2-7.8,9-7.8c6.1,0.1,8.4,3.8,8.9,6.7L163.7,27.5z"/>
		<path class="st1" d="M194.8,25.9l-0.3,19.4l-5.5-0.1l0.3-19.4l-7.6-0.1l0.1-5.2l20.7,0.4l-0.1,5.2L194.8,25.9z"/>
		<path class="st1" d="M216.5,36.8l0.3-15.7l5.5,0.1L222,36.4c-0.1,3,1.6,4.5,4.2,4.6c2.6,0,4.3-1.4,4.3-4.4l0.3-15.3l5.5,0.1
			L236,37.1c-0.1,6.2-4.5,9.4-9.9,9.3C220.7,46.3,216.4,42.9,216.5,36.8z"/>
		<path class="st1" d="M252,46.3l0.4-24.6l8.9,0.2c7.4,0.1,12.3,4.9,12.1,12.5c-0.1,7.6-5.2,12.2-12.6,12.1L252,46.3z M260.8,41.2
			c3.8,0.1,6.9-2.1,7-7c0.1-4.9-3-7.2-6.7-7.3l-3.2-0.1l-0.2,14.3L260.8,41.2z"/>
		<path class="st1" d="M288.2,46.9l0.4-24.6l5.6,0.1L293.7,47L288.2,46.9z"/>
		<path class="st1" d="M321.8,22.3c6.9,0.1,12.7,5.3,12.6,13.1c-0.1,7.8-6.1,12.7-13,12.6c-6.9-0.1-12.7-5.3-12.6-13
			C308.9,27.1,314.9,22.2,321.8,22.3z M321.5,42.6c3.4,0.1,7.1-2.2,7.2-7.3c0.1-5.1-3.5-7.5-7-7.6c-3.4-0.1-7.2,2.2-7.2,7.3
			C314.4,40.2,318,42.5,321.5,42.6z"/>
	</g>
	<g>
		<g>
			<g>
				<g>
					<path class="st2" d="M82.7,97.1c0,0,2.4,0.1,5-1.9c1.5-1.2,2.8-2.9,4-5.4c1.2-2.6,0.8-2.2,2.7,0.2c0.8,1,1.7,2.6,3.7,4.3
						c3.4,2.9,6.2,2.7,6.2,2.7"/>
					<path class="st2" d="M104.2,97.1c0,0,2.4,0.1,5-1.9c1.5-1.2,2.8-2.9,4-5.4c1.2-2.6,0.8-2.2,2.7,0.2c0.8,1,1.7,2.6,3.7,4.3
						c3.5,2.9,6.2,2.7,6.2,2.7"/>
				</g>
				<g>
					<path class="st2" d="M125.4,97.1c0,0,2.4,0.1,5-1.9c1.5-1.2,2.8-2.9,4-5.4c1.2-2.6,0.8-2.2,2.7,0.2c0.8,1,1.7,2.6,3.7,4.3
						c3.4,2.9,6.2,2.7,6.2,2.7"/>
					<path class="st2" d="M146.9,97.1c0,0,2.4,0.1,5-1.9c1.5-1.2,2.8-2.9,4-5.4c1.2-2.6,0.8-2.2,2.7,0.2c0.8,1,1.7,2.6,3.7,4.3
						c3.4,2.9,6.2,2.7,6.2,2.7"/>
				</g>
			</g>
			<g>
				<g>
					<path class="st2" d="M168.5,97.1c0,0,2.4,0.1,5-1.9c1.5-1.2,2.8-2.9,4-5.4c1.2-2.6,0.8-2.2,2.7,0.2c0.8,1,1.7,2.6,3.7,4.3
						c3.4,2.9,6.2,2.7,6.2,2.7"/>
					<path class="st2" d="M190,97.1c0,0,2.4,0.1,5-1.9c1.5-1.2,2.8-2.9,4-5.4c1.2-2.6,0.8-2.2,2.7,0.2c0.8,1,1.7,2.6,3.7,4.3
						c3.4,2.9,6.2,2.7,6.2,2.7"/>
				</g>
				<g>
					<path class="st2" d="M211.1,97.1c0,0,2.4,0.1,5-1.9c1.5-1.2,2.8-2.9,4-5.4c1.2-2.6,0.8-2.2,2.7,0.2c0.8,1,1.7,2.6,3.7,4.3
						c3.5,2.9,6.2,2.7,6.2,2.7"/>
					<path class="st2" d="M232.7,97.1c0,0,2.4,0.1,5-1.9c1.5-1.2,2.8-2.9,4-5.4c1.2-2.6,0.8-2.2,2.7,0.2c0.8,1,1.7,2.6,3.7,4.3
						c3.4,2.9,6.2,2.7,6.2,2.7"/>
				</g>
			</g>
		</g>
		<g>
			<g>
				<g>
					<path class="st2" d="M254.3,97.1c0,0,2.4,0.1,5-1.9c1.5-1.2,2.8-2.9,4-5.4c1.2-2.6,0.8-2.2,2.7,0.2c0.8,1,1.7,2.6,3.7,4.3
						c3.5,2.9,6.2,2.7,6.2,2.7"/>
					<path class="st2" d="M275.8,97.1c0,0,2.4,0.1,5-1.9c1.5-1.2,2.8-2.9,4-5.4c1.2-2.6,0.8-2.2,2.7,0.2c0.8,1,1.7,2.6,3.7,4.3
						c3.4,2.9,6.2,2.7,6.2,2.7"/>
				</g>
			</g>
		</g>
	</g>
</g>
</svg>
