<?xml version="1.0" encoding="utf-8"?>
<!-- Generator: Adobe Illustrator 21.0.0, SVG Export Plug-In . SVG Version: 6.00 Build 0)  -->
<svg version="1.1" id="Layer_1" xmlns="http://www.w3.org/2000/svg" xmlns:xlink="http://www.w3.org/1999/xlink" x="0px" y="0px"
	 viewBox="0 0 380 101.5" style="enable-background:new 0 0 380 101.5;" xml:space="preserve">
<style type="text/css">
	.st0{enable-background:new    ;}
	.st1{fill:#5E5E60;}
	.st2{fill:none;stroke:#5E5E60;stroke-width:2.6675;stroke-linecap:round;stroke-linejoin:round;stroke-miterlimit:10;}
</style>
<g class="st0">
	<path class="st1" d="M43.9-53l-9.5-0.2l-1.9,5l-5.8-0.1l9.7-24.4l6.4,0.1l8.7,24.8l-6-0.1L43.9-53z M36.3-58.1l6,0.1l-2.8-8.6
		L36.3-58.1z"/>
	<path class="st1" d="M73.2-56.6h-1.9l-0.2,9.2l-5.5-0.2L66-72.2l9.8,0.2c4.9,0.1,7.9,3.5,7.9,7.8c-0.1,3.3-1.9,5.8-5,6.9l4.8,10
		l-6-0.1L73.2-56.6z M74.5-61.3c2.3,0,3.5-1.2,3.5-2.9c0-1.8-1.2-3-3.4-3l-3.2-0.1l-0.1,6H74.5z"/>
	<path class="st1" d="M106.8-56.6l-2.8,3l-0.1,6.6l-5.5-0.1l0.4-24.5l5.5,0.1l-0.2,10.3l9.2-10.2l7.2,0.1l-9.8,10.5l9.4,14.1
		l-6.8-0.1L106.8-56.6z"/>
	<path class="st1" d="M165.9-63.1c-0.2-1.1-1.1-3.1-4-3.2c-2,0-3.4,1.2-3.4,2.6c0,1.2,0.7,2.1,2.4,2.4l3.3,0.7c4.7,0.9,7,4,7,7.5
		c-0.1,3.9-3.4,7.7-9.2,7.6c-6.8-0.1-9.6-4.6-9.9-8.1l5.1-1.1c0.2,2.3,1.7,4.3,5,4.3c2.2,0,3.5-1,3.5-2.5c0-1.2-1-2.2-2.6-2.5
		l-3.4-0.7c-4.2-0.9-6.6-3.7-6.6-7.3c0.1-4.7,4.2-7.8,9-7.8c6.1,0.1,8.4,3.8,8.9,6.7L165.9-63.1z"/>
	<path class="st1" d="M197-64.7l-0.3,19.4l-5.5-0.1l0.3-19.4l-7.6-0.1l0.1-5.2l20.7,0.4l-0.1,5.2L197-64.7z"/>
	<path class="st1" d="M218.7-53.8l0.3-15.7l5.5,0.1l-0.3,15.2c-0.1,3,1.6,4.5,4.2,4.6c2.6,0,4.3-1.4,4.3-4.4l0.3-15.3l5.5,0.1
		l-0.3,15.7c-0.1,6.2-4.5,9.4-9.9,9.3C222.9-44.3,218.6-47.7,218.7-53.8z"/>
	<path class="st1" d="M254.2-44.3l0.4-24.6l8.9,0.2c7.4,0.1,12.3,4.9,12.1,12.5c-0.1,7.6-5.2,12.2-12.6,12.1L254.2-44.3z M263-49.4
		c3.8,0.1,6.9-2.1,7-7s-3-7.2-6.7-7.3l-3.2-0.1l-0.2,14.3L263-49.4z"/>
	<path class="st1" d="M290.4-43.7l0.4-24.6l5.6,0.1l-0.5,24.6L290.4-43.7z"/>
	<path class="st1" d="M324-68.3c6.9,0.1,12.7,5.3,12.6,13.1s-6.1,12.7-13,12.6c-6.9-0.1-12.7-5.3-12.6-13
		C311.1-63.5,317.1-68.4,324-68.3z M323.7-48c3.4,0.1,7.1-2.2,7.2-7.3s-3.5-7.5-7-7.6c-3.4-0.1-7.2,2.2-7.2,7.3
		C316.6-50.4,320.2-48.1,323.7-48z"/>
</g>
<g class="st0">
	<path class="st1" d="M90,34.9l-6.9-0.1l-1.4,3.6l-4.2-0.1l7-17.7l4.6,0.1l6.3,18l-4.4-0.1L90,34.9z M84.5,31.2l4.4,0.1l-2-6.2
		L84.5,31.2z"/>
	<path class="st1" d="M111.3,32.3h-1.4l-0.1,6.7l-4-0.1l0.3-17.9l7.1,0.1c3.6,0.1,5.7,2.5,5.7,5.7c-0.1,2.4-1.4,4.2-3.6,5l3.5,7.3
		l-4.4-0.1L111.3,32.3z M112.2,28.9c1.7,0,2.5-0.9,2.5-2.1c0-1.3-0.9-2.2-2.5-2.2l-2.3-0.1l-0.1,4.4H112.2z"/>
	<path class="st1" d="M135.7,32.3l-2,2.2l-0.1,4.8l-4-0.1l0.3-17.8l4,0.1l-0.1,7.5l6.7-7.4l5.2,0.1l-7.1,7.6l6.8,10.2l-4.9-0.1
		L135.7,32.3z"/>
	<path class="st1" d="M178.6,27.6c-0.1-0.8-0.8-2.2-2.9-2.3c-1.5,0-2.5,0.9-2.5,1.9c0,0.9,0.5,1.5,1.7,1.7l2.4,0.5
		c3.4,0.7,5.1,2.9,5.1,5.4c-0.1,2.8-2.5,5.6-6.7,5.5c-4.9-0.1-7-3.3-7.2-5.9l3.7-0.8c0.1,1.7,1.2,3.1,3.6,3.1c1.6,0,2.5-0.7,2.5-1.8
		c0-0.9-0.7-1.6-1.9-1.8l-2.5-0.5c-3-0.7-4.8-2.7-4.8-5.3c0.1-3.4,3-5.7,6.5-5.7c4.4,0.1,6.1,2.8,6.5,4.9L178.6,27.6z"/>
	<path class="st1" d="M201.1,26.4l-0.2,14.1l-4-0.1l0.2-14.1l-5.5-0.1l0.1-3.8l15,0.3l-0.1,3.8L201.1,26.4z"/>
	<path class="st1" d="M216.9,34.3l0.2-11.4l4,0.1l-0.2,11c-0.1,2.2,1.2,3.3,3,3.3c1.9,0,3.1-1,3.1-3.2l0.2-11.1l4,0.1L231,34.6
		c-0.1,4.5-3.3,6.8-7.2,6.7C219.9,41.2,216.8,38.8,216.9,34.3z"/>
	<path class="st1" d="M242.7,41.2l0.3-17.9l6.5,0.1c5.4,0.1,8.9,3.6,8.8,9.1c-0.1,5.5-3.8,8.9-9.1,8.8L242.7,41.2z M249,37.5
		c2.8,0.1,5-1.5,5.1-5.1s-2.2-5.2-4.9-5.3l-2.3-0.1l-0.1,10.4L249,37.5z"/>
	<path class="st1" d="M268.9,41.7l0.3-17.9l4.1,0.1l-0.4,17.9L268.9,41.7z"/>
	<path class="st1" d="M293.3,23.8c5,0.1,9.2,3.8,9.1,9.5c-0.1,5.7-4.4,9.2-9.4,9.1c-5-0.1-9.2-3.8-9.1-9.4
		C284,27.3,288.3,23.7,293.3,23.8z M293.1,38.5c2.5,0.1,5.2-1.6,5.2-5.3c0.1-3.7-2.5-5.4-5.1-5.5c-2.5-0.1-5.2,1.6-5.2,5.3
		C287.9,36.8,290.6,38.5,293.1,38.5z"/>
</g>
<g>
	<g>
		<g>
			<g>
				<path class="st2" d="M82.7,76.6c0,0,2.4,0.1,5-1.9c1.5-1.2,2.8-2.9,4-5.4c1.2-2.6,0.8-2.2,2.7,0.2c0.8,1,1.7,2.6,3.7,4.3
					c3.4,2.9,6.2,2.7,6.2,2.7"/>
				<path class="st2" d="M104.2,76.6c0,0,2.4,0.1,5-1.9c1.5-1.2,2.8-2.9,4-5.4c1.2-2.6,0.8-2.2,2.7,0.2c0.8,1,1.7,2.6,3.7,4.3
					c3.5,2.9,6.2,2.7,6.2,2.7"/>
			</g>
			<g>
				<path class="st2" d="M125.4,76.6c0,0,2.4,0.1,5-1.9c1.5-1.2,2.8-2.9,4-5.4c1.2-2.6,0.8-2.2,2.7,0.2c0.8,1,1.7,2.6,3.7,4.3
					c3.4,2.9,6.2,2.7,6.2,2.7"/>
				<path class="st2" d="M146.9,76.6c0,0,2.4,0.1,5-1.9c1.5-1.2,2.8-2.9,4-5.4c1.2-2.6,0.8-2.2,2.7,0.2c0.8,1,1.7,2.6,3.7,4.3
					c3.4,2.9,6.2,2.7,6.2,2.7"/>
			</g>
		</g>
		<g>
			<g>
				<path class="st2" d="M168.5,76.6c0,0,2.4,0.1,5-1.9c1.5-1.2,2.8-2.9,4-5.4c1.2-2.6,0.8-2.2,2.7,0.2c0.8,1,1.7,2.6,3.7,4.3
					c3.4,2.9,6.2,2.7,6.2,2.7"/>
				<path class="st2" d="M190,76.6c0,0,2.4,0.1,5-1.9c1.5-1.2,2.8-2.9,4-5.4c1.2-2.6,0.8-2.2,2.7,0.2c0.8,1,1.7,2.6,3.7,4.3
					c3.4,2.9,6.2,2.7,6.2,2.7"/>
			</g>
			<g>
				<path class="st2" d="M211.1,76.6c0,0,2.4,0.1,5-1.9c1.5-1.2,2.8-2.9,4-5.4c1.2-2.6,0.8-2.2,2.7,0.2c0.8,1,1.7,2.6,3.7,4.3
					c3.5,2.9,6.2,2.7,6.2,2.7"/>
				<path class="st2" d="M232.7,76.6c0,0,2.4,0.1,5-1.9c1.5-1.2,2.8-2.9,4-5.4c1.2-2.6,0.8-2.2,2.7,0.2c0.8,1,1.7,2.6,3.7,4.3
					c3.4,2.9,6.2,2.7,6.2,2.7"/>
			</g>
		</g>
	</g>
	<g>
		<g>
			<g>
				<path class="st2" d="M254.3,76.6c0,0,2.4,0.1,5-1.9c1.5-1.2,2.8-2.9,4-5.4c1.2-2.6,0.8-2.2,2.7,0.2c0.8,1,1.7,2.6,3.7,4.3
					c3.5,2.9,6.2,2.7,6.2,2.7"/>
				<path class="st2" d="M275.8,76.6c0,0,2.4,0.1,5-1.9c1.5-1.2,2.8-2.9,4-5.4c1.2-2.6,0.8-2.2,2.7,0.2c0.8,1,1.7,2.6,3.7,4.3
					c3.4,2.9,6.2,2.7,6.2,2.7"/>
			</g>
		</g>
	</g>
</g>
</svg>
