<?xml version="1.0" encoding="utf-8"?>
<!-- Generator: Adobe Illustrator 21.0.0, SVG Export Plug-In . SVG Version: 6.00 Build 0)  -->
<svg version="1.1" id="Layer_1" xmlns="http://www.w3.org/2000/svg" xmlns:xlink="http://www.w3.org/1999/xlink" x="0px" y="0px"
	 viewBox="0 0 910 500" style="enable-background:new 0 0 910 500;" xml:space="preserve">
<style type="text/css">
	.st0{clip-path:url(#SVGID_2_);}
	.st1{clip-path:url(#SVGID_4_);}
	.st2{clip-path:url(#SVGID_6_);enable-background:new    ;}
	.st3{clip-path:url(#SVGID_8_);}
	.st4{clip-path:url(#SVGID_10_);fill:#FEFAF9;}
	.st5{clip-path:url(#SVGID_12_);}
	.st6{clip-path:url(#SVGID_14_);fill:#FEFAF9;}
	.st7{clip-path:url(#SVGID_16_);}
	.st8{clip-path:url(#SVGID_18_);}
	.st9{clip-path:url(#SVGID_20_);enable-background:new    ;}
	.st10{clip-path:url(#SVGID_22_);}
	.st11{clip-path:url(#SVGID_24_);fill:#FEFAF9;}
	.st12{clip-path:url(#SVGID_26_);}
	.st13{clip-path:url(#SVGID_28_);}
	.st14{clip-path:url(#SVGID_30_);enable-background:new    ;}
	.st15{clip-path:url(#SVGID_32_);}
	.st16{clip-path:url(#SVGID_34_);fill:#FEFAF9;}
	.st17{clip-path:url(#SVGID_36_);}
	.st18{clip-path:url(#SVGID_38_);fill:#FEFAF9;}
	.st19{clip-path:url(#SVGID_40_);}
	.st20{clip-path:url(#SVGID_42_);}
	.st21{enable-background:new    ;}
	.st22{clip-path:url(#SVGID_44_);}
	.st23{clip-path:url(#SVGID_46_);fill:#FEFAF9;}
	.st24{fill:none;}
	.st25{clip-path:url(#SVGID_48_);}
	.st26{clip-path:url(#SVGID_50_);}
	.st27{clip-path:url(#SVGID_52_);enable-background:new    ;}
	.st28{clip-path:url(#SVGID_54_);}
	.st29{clip-path:url(#SVGID_56_);fill:#FEFAF9;}
	.st30{clip-path:url(#SVGID_58_);}
	.st31{clip-path:url(#SVGID_60_);fill:#FEFAF9;}
	.st32{clip-path:url(#SVGID_62_);}
	.st33{clip-path:url(#SVGID_64_);}
	.st34{clip-path:url(#SVGID_66_);enable-background:new    ;}
	.st35{clip-path:url(#SVGID_68_);}
	.st36{clip-path:url(#SVGID_70_);fill:#FEFAF9;}
	.st37{clip-path:url(#SVGID_72_);}
	.st38{clip-path:url(#SVGID_74_);}
	.st39{clip-path:url(#SVGID_76_);enable-background:new    ;}
	.st40{clip-path:url(#SVGID_78_);}
	.st41{clip-path:url(#SVGID_80_);fill:#FEFAF9;}
	.st42{clip-path:url(#SVGID_82_);}
	.st43{clip-path:url(#SVGID_84_);fill:#FEFAF9;}
	.st44{clip-path:url(#SVGID_86_);}
	.st45{clip-path:url(#SVGID_88_);}
	.st46{clip-path:url(#SVGID_90_);}
	.st47{clip-path:url(#SVGID_92_);fill:#FEFAF9;}
	.st48{clip-path:url(#SVGID_94_);}
	.st49{clip-path:url(#SVGID_96_);enable-background:new    ;}
	.st50{clip-path:url(#SVGID_98_);}
	.st51{clip-path:url(#SVGID_100_);}
	.st52{clip-path:url(#SVGID_102_);fill:#FEFAF9;}
	.st53{clip-path:url(#SVGID_104_);}
	.st54{clip-path:url(#SVGID_106_);fill:#FEFAF9;}
	.st55{clip-path:url(#SVGID_110_);}
	.st56{clip-path:url(#SVGID_112_);fill:#FEFAF9;}
	.st57{clip-path:url(#SVGID_114_);}
	.st58{clip-path:url(#SVGID_116_);enable-background:new    ;}
	.st59{clip-path:url(#SVGID_118_);}
	.st60{clip-path:url(#SVGID_120_);}
	.st61{clip-path:url(#SVGID_122_);fill:#FEFAF9;}
	.st62{fill:#FEFAF9;}
</style>
<g>
	<g>
		<defs>
			<rect id="SVGID_1_" x="-712.2" y="-65.1" width="90.1" height="90.1"/>
		</defs>
		<clipPath id="SVGID_2_">
			<use xlink:href="#SVGID_1_"  style="overflow:visible;"/>
		</clipPath>
		<g class="st0">
			<g>
				<defs>
					<rect id="SVGID_3_" x="-1332.2" y="-825.9" width="3166.2" height="2152.6"/>
				</defs>
				<clipPath id="SVGID_4_">
					<use xlink:href="#SVGID_3_"  style="overflow:visible;"/>
				</clipPath>
				<g class="st1">
					<g>
						<g>
							<defs>
								<rect id="SVGID_5_" x="-712.2" y="-65.1" width="90.1" height="90.1"/>
							</defs>
							<clipPath id="SVGID_6_">
								<use xlink:href="#SVGID_5_"  style="overflow:visible;"/>
							</clipPath>
							<g class="st2">
								<g>
									<defs>
										<path id="SVGID_7_" d="M-670,25h-0.2c-0.1,0-0.2,0-0.3-0.1c-0.1,0-0.1,0-0.2,0l0,0l0,0c-7-0.5-13.5-2.6-19.4-6.1
											c-11.5-7-18.7-17.3-21.3-30.5c-0.2-1.2-0.4-2.5-0.6-3.7l0,0c-0.1-0.5-0.1-1.1-0.2-1.6v-0.1V-23v-0.2c0-0.1,0-0.2,0.1-0.3
											v-0.1c0-0.1,0-0.2,0-0.2c0.6-7.9,3.1-15.1,7.5-21.4c7.1-10.4,17-16.8,29.3-19.2c1.2-0.2,2.4-0.4,3.6-0.5h0.1
											c0.5-0.1,1-0.1,1.6-0.2h0.1h5.7h0.2c0.1,0,0.2,0,0.3,0.1c0.1,0,0.1,0,0.2,0l0,0c8.5,0.7,16.2,3.5,23,8.6
											c9.5,7.1,15.4,16.5,17.6,28.1c0.2,1.2,0.4,2.5,0.6,3.7c0.1,0.6,0.1,1.1,0.2,1.6v0.1v5.7v0.1c0,0.3-0.1,0.7-0.1,1v0.1
											c-0.1,0.8-0.2,1.7-0.3,2.5c-1.4,8.9-5.1,16.8-11,23.4c-6.8,7.6-15.4,12.4-25.3,14.3c-1.2,0.2-2.5,0.4-3.7,0.6
											c-0.5,0.1-1.1,0.1-1.6,0.2h-0.1C-664.2,25-670,25-670,25z M-667.5-57.5c-20.3,0-36.9,16.7-37.1,37.2
											c-0.1,10,3.7,19.4,10.7,26.5s16.4,11,26.5,11.1h0.2c9.9,0,19.3-3.9,26.3-10.8c7.1-7,11-16.4,11-26.5
											c0.1-20.5-16.6-37.3-37.3-37.5L-667.5-57.5z"/>
									</defs>
									<clipPath id="SVGID_8_">
										<use xlink:href="#SVGID_7_"  style="overflow:visible;"/>
									</clipPath>
									<g class="st3">
										<g>
											<defs>
												<rect id="SVGID_9_" x="-712.2" y="-65.1" width="92.3" height="90.1"/>
											</defs>
											<clipPath id="SVGID_10_">
												<use xlink:href="#SVGID_9_"  style="overflow:visible;"/>
											</clipPath>
											<rect x="-723.2" y="-76.1" class="st4" width="112.1" height="112.1"/>
										</g>
									</g>
								</g>
							</g>
						</g>
					</g>
					<g>
						<g>
							<defs>
								<path id="SVGID_11_" d="M-648.5,2.3c-0.1,0-0.3,0-0.4,0c-0.5-0.1-1.1-0.2-1.6-0.4c-7.6-3.1-13.7-6.1-19.3-9.4
									c-4.2-2.4-7.5-5.7-9.9-9.9c-3.3-5.7-6.3-12-9.4-19.4c-1-2.4,0-3.9,0.7-4.6c0.7-0.7,1.6-1.1,2.6-1.1c0.6,0,1.2,0.1,1.9,0.4
									c6.3,2.6,13.8,5.9,20.9,10.4c3.1,1.9,5.5,4.4,7.5,7.5c4.4,7,7.7,14.5,10.3,20.8c0.2,0.5,0.3,0.9,0.3,1.2l0,0
									c0,0.1,0,0.1,0,0.2v0.2v0.2c0,1.1-0.4,2.1-1.1,2.8C-646.7,1.9-647.5,2.3-648.5,2.3z M-677.8-30.1c2.1,4.4,4,7.8,6,10.9
									c1,1.5,2.2,2.7,3.7,3.7c3.1,2,6.5,3.9,10.9,6L-656-9l-0.5-1.1c-1.6-3.4-3.9-7.9-6.8-11.9c-0.7-0.9-1.4-1.6-2.2-2.1
									c-3.3-2-6.9-4-11.2-6.4c-0.1-0.1-0.2-0.1-0.3-0.2l-1.2-0.6L-677.8-30.1z"/>
							</defs>
							<clipPath id="SVGID_12_">
								<use xlink:href="#SVGID_11_"  style="overflow:visible;"/>
							</clipPath>
							<g class="st5">
								<g>
									<defs>
										<rect id="SVGID_13_" x="-1332.2" y="-825.9" width="3166.2" height="2152.6"/>
									</defs>
									<clipPath id="SVGID_14_">
										<use xlink:href="#SVGID_13_"  style="overflow:visible;"/>
									</clipPath>
									<rect x="-700.5" y="-53.5" class="st6" width="66.7" height="66.8"/>
								</g>
							</g>
							<g class="st5">
								<g>
									<defs>
										<polygon id="SVGID_15_" points="-484.2,16.1 -439.8,16.1 -439.8,-29.7 -528.8,-29.7 -528.8,16.1 										"/>
									</defs>
									<clipPath id="SVGID_16_">
										<use xlink:href="#SVGID_15_"  style="overflow:visible;"/>
									</clipPath>
									<g class="st7">
										<g>
											<defs>
												<rect id="SVGID_17_" x="-1332.2" y="-825.9" width="3166.2" height="2152.6"/>
											</defs>
											<clipPath id="SVGID_18_">
												<use xlink:href="#SVGID_17_"  style="overflow:visible;"/>
											</clipPath>
											<g class="st8">
												<g>
													<g>
														<defs>
															<rect id="SVGID_19_" x="-529.8" y="-30" width="90.1" height="46.2"/>
														</defs>
														<clipPath id="SVGID_20_">
															<use xlink:href="#SVGID_19_"  style="overflow:visible;"/>
														</clipPath>
														<g class="st9">
															<g>
																<defs>
																	<path id="SVGID_21_" d="M-456.5,16.1c-9.8,0-23.3,0-36.5,0c-11.5,0-22.8,0-31.3,0c-1.5,0-2.7-0.4-3.5-1.2
																		c-0.7-0.7-1-1.7-1-2.9c0.1-3.1,2.6-3.7,4.7-3.7c3.2,0,8.2,0,13.6,0c5.3,0,11.1,0,15.9,0h8.7h13c4.5,0,9,0,13.4,0
																		l0,0c1,0,1-0.1,1.2-0.6c2-6.2,4-12.5,6-18.6c1.1-3.3,2.2-6.7,3.2-10c0.1-0.3,0.2-0.6,0.2-1l-16.4-0.1
																		c-3.7,0-7.3,0-11,0c-7.1,0-13.2,0-19.2,0c-6.4,0-12.8,0-20.4,0c-0.1,0-0.3,0-0.4,0c-0.2,0-0.4,0-0.6,0
																		c-0.6,0-1.3-0.1-1.9-0.5c-1-0.7-2.3-1.8-2.5-3.2c-0.2-1.6,1.6-3.1,2.1-3.5c0.7-0.5,1.5-0.6,2.2-0.6
																		c0.1,0,0.3,0,0.4,0c0.1,0,0.2,0,0.3,0c15.1,0,28.5,0,42.3,0c9.2,0,18.6,0,28.7,0c1.8,0,3.8,0.2,4.8,1.6
																		c1,1.4,0.6,3.4,0.1,5.1c-1.7,5.3-3.4,10.6-5.1,15.8c-1.4,4.4-2.8,8.9-4.3,13.3c-0.3,0.9-0.6,1.9-1,2.8
																		c-0.4,1.2-0.9,2.5-1.2,3.7C-452.5,14.9-454,16.1-456.5,16.1L-456.5,16.1z"/>
																</defs>
																<clipPath id="SVGID_22_">
																	<use xlink:href="#SVGID_21_"  style="overflow:visible;"/>
																</clipPath>
																<g class="st10">
																	<g>
																		<defs>
																			<rect id="SVGID_23_" x="-529.8" y="-30" width="90.1" height="46.2"/>
																		</defs>
																		<clipPath id="SVGID_24_">
																			<use xlink:href="#SVGID_23_"  style="overflow:visible;"/>
																		</clipPath>
																		<rect x="-539.8" y="-40.7" class="st11" width="111" height="67.8"/>
																	</g>
																</g>
															</g>
														</g>
													</g>
												</g>
												<g>
													<g>
														<defs>
															<rect id="SVGID_25_" x="-565" y="-58.1" width="42" height="73.9"/>
														</defs>
														<clipPath id="SVGID_26_">
															<use xlink:href="#SVGID_25_"  style="overflow:visible;"/>
														</clipPath>
														<g class="st12">
															<g>
																<defs>
																	<rect id="SVGID_27_" x="-1332.2" y="-825.9" width="3166.2" height="2152.6"/>
																</defs>
																<clipPath id="SVGID_28_">
																	<use xlink:href="#SVGID_27_"  style="overflow:visible;"/>
																</clipPath>
																<g class="st13">
																	<g>
																		<g>
																			<defs>
																				<rect id="SVGID_29_" x="-565" y="-58.6" width="44" height="74.8"/>
																			</defs>
																			<clipPath id="SVGID_30_">
																				<use xlink:href="#SVGID_29_"  style="overflow:visible;"/>
																			</clipPath>
																			<g class="st14">
																				<g>
																					<defs>
																						<path id="SVGID_31_" d="M-526.7,15.8c-1.6,0-3.4-1.2-3.8-2.5c-2.7-10.5-5.1-20-7.6-29.6
																							c-1.9-7.4-3.8-14.9-5.9-22.9c-0.4-1.5-1-2.3-2.3-2.9c-4.5-2.3-9-4.8-13.3-7.2l-2.7-1.5
																							c-1.6-0.8-2.6-2.2-2.7-3.6c-0.1-1.1,0.3-2.1,1.2-2.8c0.7-0.6,1.9-1,3-1c0.5,0,1,0.1,1.4,0.3
																							c6.9,3.6,14,7.5,20,10.8c0.9,0.5,1.7,1.5,1.9,2.5c1.6,6.1,3.2,12.2,4.7,18.2c1.3,5.2,2.7,10.5,4,15.7
																							c0.8,3.2,1.7,6.5,2.6,9.7c1.1,4,2.2,8.1,3.2,12.1l0.1,0.3l-0.1,0.3c-0.1,0.5-0.7,2.9-2.4,3.7
																							C-525.8,15.8-526.2,15.8-526.7,15.8z"/>
																					</defs>
																					<clipPath id="SVGID_32_">
																						<use xlink:href="#SVGID_31_"  style="overflow:visible;"/>
																					</clipPath>
																					<g class="st15">
																						<g>
																							<defs>
																								<rect id="SVGID_33_" x="-565" y="-58.6" width="44" height="74.8"/>
																							</defs>
																							<clipPath id="SVGID_34_">
																								<use xlink:href="#SVGID_33_"  style="overflow:visible;"/>
																							</clipPath>
																							<rect x="-576" y="-69.1" class="st16" width="64" height="95.9"/>
																						</g>
																					</g>
																				</g>
																			</g>
																		</g>
																	</g>
																	<g>
																		<g>
																			<defs>
																				<path id="SVGID_35_" d="M-334.1,8.7c-5.4,0-10.4-2.2-14.2-6.1c-3.8-3.9-5.9-9.1-5.8-14.6
																					c0-11.3,8.9-20.6,19.9-20.7h0.2c11,0,20,9.3,20,20.7c0,11.3-8.9,20.7-19.8,20.8L-334.1,8.7L-334.1,8.7z
																					 M-334-26.3c-7.5,0-13.7,6.3-13.8,14c-0.1,3.8,1.3,7.5,4,10.2c2.6,2.7,6,4.2,9.7,4.2h0.2
																					c7.5,0,13.7-6.3,13.7-14.1c0.1-7.7-6.2-14.2-13.6-14.3H-334z"/>
																			</defs>
																			<clipPath id="SVGID_36_">
																				<use xlink:href="#SVGID_35_"  style="overflow:visible;"/>
																			</clipPath>
																			<g class="st17">
																				<g>
																					<defs>
																						<rect id="SVGID_37_" x="-1332.2" y="-825.9" width="3166.2" height="2152.6"/>
																					</defs>
																					<clipPath id="SVGID_38_">
																						<use xlink:href="#SVGID_37_"  style="overflow:visible;"/>
																					</clipPath>
																					<rect x="-365.1" y="-43.8" class="st18" width="62.1" height="63.5"/>
																				</g>
																			</g>
																			<g class="st17">
																				<g>
																					<defs>
																						<rect id="SVGID_39_" x="-382.5" y="-58.1" width="98.6" height="78.4"/>
																					</defs>
																					<clipPath id="SVGID_40_">
																						<use xlink:href="#SVGID_39_"  style="overflow:visible;"/>
																					</clipPath>
																					<g class="st19">
																						<g>
																							<defs>
																								<rect id="SVGID_41_" x="-1332.2" y="-825.9" width="3166.2" height="2152.6"/>
																							</defs>
																							<clipPath id="SVGID_42_">
																								<use xlink:href="#SVGID_41_"  style="overflow:visible;"/>
																							</clipPath>
																							<g class="st20">
																								<g class="st21">
																									<g>
																										<defs>
																											<rect id="SVGID_43_" x="-382.5" y="-58.6" width="98.9" height="79.2"/>
																										</defs>
																										<clipPath id="SVGID_44_">
																											<use xlink:href="#SVGID_43_"  style="overflow:visible;"/>
																										</clipPath>
																										<g class="st22">
																											<g>
																												<defs>
																													<rect id="SVGID_45_" x="-382.5" y="-58.6" width="98.9" height="79.2"/>
																												</defs>
																												<clipPath id="SVGID_46_">
																													<use xlink:href="#SVGID_45_"  style="overflow:visible;"/>
																												</clipPath>
																												<rect x="-393.5" y="-69.1" class="st23" width="120.6" height="100.4"/>
																											</g>
																										</g>
																									</g>
																								</g>
																							</g>
																						</g>
																					</g>
																				</g>
																			</g>
																		</g>
																	</g>
																</g>
															</g>
														</g>
													</g>
												</g>
											</g>
										</g>
									</g>
								</g>
							</g>
						</g>
					</g>
				</g>
			</g>
		</g>
	</g>
</g>
<path class="st24" d="M-355.1,20.2h-6.5l-0.1,0.1h-0.4c-0.2,0-0.3,0-0.5,0c-0.4,0-0.7,0-1,0c-1.2,0-2.4,0-3.6,0c-1.4,0-2.7,0-4.1,0
	c-2,0-3.7,0-5.2,0h-0.1c-1.6,0-3-0.6-4.1-1.7s-1.7-2.7-1.7-4.4c0.1-5.6,0-11.4,0-16.9c0-2.2,0-4.3,0-6.4c0-2.6,0-5.3,0-7.9
	c0-7,0-14.1,0-21.2c0-1.7,0.6-3.3,1.7-4.4c1.1-1.1,2.6-1.8,4.2-1.8h0.1c2.9,0,6,0,9.8,0c2.1,0,4.2,0,6.3,0c2.1,0,4.2,0,6.3,0h0.4
	l0.1-0.1c0.2-0.6,0.6-1.2,0.9-1.6l0.1-0.2c0.4-0.7,0.9-2.2,1.3-3.6c0.6-2,1.2-3.9,2-5c0.6-0.8,1.3-1.7,2.2-2.3
	c0.8-0.6,1.7-0.7,2.4-0.7c5.3,0,19.7,0,19.7,0c0.3,0,0.6-0.1,0.9-0.1c2.3,0,3.7,1.6,4.5,2.8c1.1,1.6,2.1,4.4,3.1,7
	c0.5,1.4,1,2.8,1.4,3.7l0.1,0.1h0.1h0.3c0.5,0,1.1,0,1.6,0c1,0,2.1,0,3.1,0h0.1l0.1-0.1h5.6l0.2,0.1h0.1c0.8,0,1.7,0,2.5,0h2.9
	c0.3,0,1.2,0,1.2,0l0.1-0.1h5.7l0.1,0.1h0.1c0.2,0,0.4,0,0.6,0c0.3,0,0.5,0,0.8,0h0.5c3.2,0,5.6,2.5,5.6,5.8c0,4.1,0,8.1,0,12.2v0.4
	c0,4.5,0,9,0,13.5c0,8.7,0,17.7,0,26.8c0,2-0.8,3.6-2.3,4.8c-0.9,0.7-2,1.1-3.1,1.1h-2.9c-3.7,0-7.3,0-11,0h-6.7c-0.6,0-1.1,0-1.6,0
	h-0.7l-0.2,0.1h-0.5c-0.4,0-0.8-0.1-1.2-0.1c-0.3,0-0.7,0-1,0l-0.6,0.1l-0.1-0.1h-4.9c-11,0-22.1,0-33.1,0c-0.1,0-0.3,0-0.5,0
	c-0.1,0-0.2,0-0.3,0h-0.6H-355.1z M-359.9,13.1L-359.9,13.1c0.8,0.1,1.6,0.1,2.4,0.1s1.6,0,2.4-0.1h0.1h0.1h1.4h0.3c0.3,0,0.6,0,1,0
	c0.3,0,0.6,0,0.9,0c0.4,0,0.7,0,1,0c9.3,0,18.7,0,28,0h16.8h14.6v-0.2c0-9.6,0-19.3,0-28.9v-21.3h-0.2c-2.2,0-4.4,0-6.6,0h-2.6h-0.4
	h-0.6h-0.4h-0.6h-3.1h-1.1l0,0c-0.6,0-1.2-0.1-1.9-0.1c-0.6,0-1.2,0-1.9,0.1l0,0h-1.1h-1.5h-0.5l0,0c-0.1,0-0.1,0-0.2,0l0,0
	l-0.2,0.1h-0.5h-0.2c-0.1,0-0.2,0-0.3,0h-36.9c-0.2,0-0.5,0-0.7,0h-0.9h-0.2c-0.1,0-0.2,0-0.3,0c-0.1,0-0.2,0-0.2,0h-0.1h-1.3h-0.2
	c-0.2,0-0.4,0-0.5,0s-0.1,0-0.2,0l-0.7,0.1l-0.2-0.2h-0.1c-0.2,0-0.3,0.1-0.5,0.1h-0.1h-0.1h-0.1h-0.1h-0.2h-0.7h-16.5
	c0,0,0,26.4,0,39.6v2.9c0,2.6,0,5.2,0,7.8v0.2h0.2c1.4,0,2.9,0,4.3,0h5c0.5,0,1.1,0,1.6,0h0.9h0.2c0.4,0,0.8,0,1.3,0s1,0,1.5,0h0.5
	h0.2V13.1z M-328.4-44.4c1.8,0,3.5,0,5.3,0h0.3l-0.1-0.3c-0.2-0.7-0.5-1.5-0.7-2.3c-0.4-1.4-1-3.2-1.4-3.9l-0.1-0.1h-0.1
	c-3.1,0-6.1,0-9.1,0c-3.1,0-6.1,0-9.2,0h-0.1l-0.1,0.1c-0.4,0.7-1,2.4-1.4,3.8c-0.3,0.8-0.5,1.6-0.7,2.3l-0.1,0.3h0.3
	c2.4,0,4.9,0,7.3,0h2.5h1.5L-328.4-44.4z"/>
<g>
	<g>
		<defs>
			<rect id="SVGID_47_" x="-712.2" y="-65.1" width="90.1" height="90.1"/>
		</defs>
		<clipPath id="SVGID_48_">
			<use xlink:href="#SVGID_47_"  style="overflow:visible;"/>
		</clipPath>
		<g class="st25">
			<g>
				<defs>
					<rect id="SVGID_49_" x="-1332.2" y="-825.9" width="3166.2" height="2152.6"/>
				</defs>
				<clipPath id="SVGID_50_">
					<use xlink:href="#SVGID_49_"  style="overflow:visible;"/>
				</clipPath>
				<g class="st26">
					<g>
						<g>
							<defs>
								<rect id="SVGID_51_" x="-712.2" y="-65.1" width="90.1" height="90.1"/>
							</defs>
							<clipPath id="SVGID_52_">
								<use xlink:href="#SVGID_51_"  style="overflow:visible;"/>
							</clipPath>
							<g class="st27">
								<g>
									<defs>
										<path id="SVGID_53_" d="M-670,25h-0.2c-0.1,0-0.2,0-0.3-0.1c-0.1,0-0.1,0-0.2,0l0,0l0,0c-7-0.5-13.5-2.6-19.4-6.1
											c-11.5-7-18.7-17.3-21.3-30.5c-0.2-1.2-0.4-2.5-0.6-3.7l0,0c-0.1-0.5-0.1-1.1-0.2-1.6v-0.1V-23v-0.2c0-0.1,0-0.2,0.1-0.3
											v-0.1c0-0.1,0-0.2,0-0.2c0.6-7.9,3.1-15.1,7.5-21.4c7.1-10.4,17-16.8,29.3-19.2c1.2-0.2,2.4-0.4,3.6-0.5h0.1
											c0.5-0.1,1-0.1,1.6-0.2h0.1h5.7h0.2c0.1,0,0.2,0,0.3,0.1c0.1,0,0.1,0,0.2,0l0,0c8.5,0.7,16.2,3.5,23,8.6
											c9.5,7.1,15.4,16.5,17.6,28.1c0.2,1.2,0.4,2.5,0.6,3.7c0.1,0.6,0.1,1.1,0.2,1.6v0.1v5.7v0.1c0,0.3-0.1,0.7-0.1,1v0.1
											c-0.1,0.8-0.2,1.7-0.3,2.5c-1.4,8.9-5.1,16.8-11,23.4c-6.8,7.6-15.4,12.4-25.3,14.3c-1.2,0.2-2.5,0.4-3.7,0.6
											c-0.5,0.1-1.1,0.1-1.6,0.2h-0.1C-664.2,25-670,25-670,25z M-667.5-57.5c-20.3,0-36.9,16.7-37.1,37.2
											c-0.1,10,3.7,19.4,10.7,26.5s16.4,11,26.5,11.1h0.2c9.9,0,19.3-3.9,26.3-10.8c7.1-7,11-16.4,11-26.5
											c0.1-20.5-16.6-37.3-37.3-37.5L-667.5-57.5z"/>
									</defs>
									<clipPath id="SVGID_54_">
										<use xlink:href="#SVGID_53_"  style="overflow:visible;"/>
									</clipPath>
									<g class="st28">
										<g>
											<defs>
												<rect id="SVGID_55_" x="-712.2" y="-65.1" width="92.3" height="90.1"/>
											</defs>
											<clipPath id="SVGID_56_">
												<use xlink:href="#SVGID_55_"  style="overflow:visible;"/>
											</clipPath>
											<rect x="-723.2" y="-76.1" class="st29" width="112.1" height="112.1"/>
										</g>
									</g>
								</g>
							</g>
						</g>
					</g>
					<g>
						<g>
							<defs>
								<path id="SVGID_57_" d="M-648.5,2.3c-0.1,0-0.3,0-0.4,0c-0.5-0.1-1.1-0.2-1.6-0.4c-7.6-3.1-13.7-6.1-19.3-9.4
									c-4.2-2.4-7.5-5.7-9.9-9.9c-3.3-5.7-6.3-12-9.4-19.4c-1-2.4,0-3.9,0.7-4.6c0.7-0.7,1.6-1.1,2.6-1.1c0.6,0,1.2,0.1,1.9,0.4
									c6.3,2.6,13.8,5.9,20.9,10.4c3.1,1.9,5.5,4.4,7.5,7.5c4.4,7,7.7,14.5,10.3,20.8c0.2,0.5,0.3,0.9,0.3,1.2l0,0
									c0,0.1,0,0.1,0,0.2v0.2v0.2c0,1.1-0.4,2.1-1.1,2.8C-646.7,1.9-647.5,2.3-648.5,2.3z M-677.8-30.1c2.1,4.4,4,7.8,6,10.9
									c1,1.5,2.2,2.7,3.7,3.7c3.1,2,6.5,3.9,10.9,6L-656-9l-0.5-1.1c-1.6-3.4-3.9-7.9-6.8-11.9c-0.7-0.9-1.4-1.6-2.2-2.1
									c-3.3-2-6.9-4-11.2-6.4c-0.1-0.1-0.2-0.1-0.3-0.2l-1.2-0.6L-677.8-30.1z"/>
							</defs>
							<clipPath id="SVGID_58_">
								<use xlink:href="#SVGID_57_"  style="overflow:visible;"/>
							</clipPath>
							<g class="st30">
								<g>
									<defs>
										<rect id="SVGID_59_" x="-1332.2" y="-825.9" width="3166.2" height="2152.6"/>
									</defs>
									<clipPath id="SVGID_60_">
										<use xlink:href="#SVGID_59_"  style="overflow:visible;"/>
									</clipPath>
									<rect x="-700.5" y="-53.5" class="st31" width="66.7" height="66.8"/>
								</g>
							</g>
							<g class="st30">
								<g>
									<defs>
										<polygon id="SVGID_61_" points="-484.2,16.1 -439.8,16.1 -439.8,-29.7 -528.8,-29.7 -528.8,16.1 										"/>
									</defs>
									<clipPath id="SVGID_62_">
										<use xlink:href="#SVGID_61_"  style="overflow:visible;"/>
									</clipPath>
									<g class="st32">
										<g>
											<defs>
												<rect id="SVGID_63_" x="-1332.2" y="-825.9" width="3166.2" height="2152.6"/>
											</defs>
											<clipPath id="SVGID_64_">
												<use xlink:href="#SVGID_63_"  style="overflow:visible;"/>
											</clipPath>
											<g class="st33">
												<g>
													<g>
														<defs>
															<rect id="SVGID_65_" x="-529.8" y="-30" width="90.1" height="46.2"/>
														</defs>
														<clipPath id="SVGID_66_">
															<use xlink:href="#SVGID_65_"  style="overflow:visible;"/>
														</clipPath>
														<g class="st34">
															<g>
																<defs>
																	<path id="SVGID_67_" d="M-456.5,16.1c-9.8,0-23.3,0-36.5,0c-11.5,0-22.8,0-31.3,0c-1.5,0-2.7-0.4-3.5-1.2
																		c-0.7-0.7-1-1.7-1-2.9c0.1-3.1,2.6-3.7,4.7-3.7c3.2,0,8.2,0,13.6,0c5.3,0,11.1,0,15.9,0h8.7h13c4.5,0,9,0,13.4,0
																		l0,0c1,0,1-0.1,1.2-0.6c2-6.2,4-12.5,6-18.6c1.1-3.3,2.2-6.7,3.2-10c0.1-0.3,0.2-0.6,0.2-1l-16.4-0.1
																		c-3.7,0-7.3,0-11,0c-7.1,0-13.2,0-19.2,0c-6.4,0-12.8,0-20.4,0c-0.1,0-0.3,0-0.4,0c-0.2,0-0.4,0-0.6,0
																		c-0.6,0-1.3-0.1-1.9-0.5c-1-0.7-2.3-1.8-2.5-3.2c-0.2-1.6,1.6-3.1,2.1-3.5c0.7-0.5,1.5-0.6,2.2-0.6
																		c0.1,0,0.3,0,0.4,0c0.1,0,0.2,0,0.3,0c15.1,0,28.5,0,42.3,0c9.2,0,18.6,0,28.7,0c1.8,0,3.8,0.2,4.8,1.6
																		c1,1.4,0.6,3.4,0.1,5.1c-1.7,5.3-3.4,10.6-5.1,15.8c-1.4,4.4-2.8,8.9-4.3,13.3c-0.3,0.9-0.6,1.9-1,2.8
																		c-0.4,1.2-0.9,2.5-1.2,3.7C-452.5,14.9-454,16.1-456.5,16.1L-456.5,16.1z"/>
																</defs>
																<clipPath id="SVGID_68_">
																	<use xlink:href="#SVGID_67_"  style="overflow:visible;"/>
																</clipPath>
																<g class="st35">
																	<g>
																		<defs>
																			<rect id="SVGID_69_" x="-529.8" y="-30" width="90.1" height="46.2"/>
																		</defs>
																		<clipPath id="SVGID_70_">
																			<use xlink:href="#SVGID_69_"  style="overflow:visible;"/>
																		</clipPath>
																		<rect x="-539.8" y="-40.7" class="st36" width="111" height="67.8"/>
																	</g>
																</g>
															</g>
														</g>
													</g>
												</g>
												<g>
													<g>
														<defs>
															<rect id="SVGID_71_" x="-565" y="-58.1" width="42" height="73.9"/>
														</defs>
														<clipPath id="SVGID_72_">
															<use xlink:href="#SVGID_71_"  style="overflow:visible;"/>
														</clipPath>
														<g class="st37">
															<g>
																<defs>
																	<rect id="SVGID_73_" x="-1332.2" y="-825.9" width="3166.2" height="2152.6"/>
																</defs>
																<clipPath id="SVGID_74_">
																	<use xlink:href="#SVGID_73_"  style="overflow:visible;"/>
																</clipPath>
																<g class="st38">
																	<g>
																		<g>
																			<defs>
																				<rect id="SVGID_75_" x="-565" y="-58.6" width="44" height="74.8"/>
																			</defs>
																			<clipPath id="SVGID_76_">
																				<use xlink:href="#SVGID_75_"  style="overflow:visible;"/>
																			</clipPath>
																			<g class="st39">
																				<g>
																					<defs>
																						<path id="SVGID_77_" d="M-526.7,15.8c-1.6,0-3.4-1.2-3.8-2.5c-2.7-10.5-5.1-20-7.6-29.6
																							c-1.9-7.4-3.8-14.9-5.9-22.9c-0.4-1.5-1-2.3-2.3-2.9c-4.5-2.3-9-4.8-13.3-7.2l-2.7-1.5
																							c-1.6-0.8-2.6-2.2-2.7-3.6c-0.1-1.1,0.3-2.1,1.2-2.8c0.7-0.6,1.9-1,3-1c0.5,0,1,0.1,1.4,0.3
																							c6.9,3.6,14,7.5,20,10.8c0.9,0.5,1.7,1.5,1.9,2.5c1.6,6.1,3.2,12.2,4.7,18.2c1.3,5.2,2.7,10.5,4,15.7
																							c0.8,3.2,1.7,6.5,2.6,9.7c1.1,4,2.2,8.1,3.2,12.1l0.1,0.3l-0.1,0.3c-0.1,0.5-0.7,2.9-2.4,3.7
																							C-525.8,15.8-526.2,15.8-526.7,15.8z"/>
																					</defs>
																					<clipPath id="SVGID_78_">
																						<use xlink:href="#SVGID_77_"  style="overflow:visible;"/>
																					</clipPath>
																					<g class="st40">
																						<g>
																							<defs>
																								<rect id="SVGID_79_" x="-565" y="-58.6" width="44" height="74.8"/>
																							</defs>
																							<clipPath id="SVGID_80_">
																								<use xlink:href="#SVGID_79_"  style="overflow:visible;"/>
																							</clipPath>
																							<rect x="-576" y="-69.1" class="st41" width="64" height="95.9"/>
																						</g>
																					</g>
																				</g>
																			</g>
																		</g>
																	</g>
																	<g>
																		<g>
																			<defs>
																				<path id="SVGID_81_" d="M-334.1,8.7c-5.4,0-10.4-2.2-14.2-6.1c-3.8-3.9-5.9-9.1-5.8-14.6
																					c0-11.3,8.9-20.6,19.9-20.7h0.2c11,0,20,9.3,20,20.7c0,11.3-8.9,20.7-19.8,20.8L-334.1,8.7L-334.1,8.7z
																					 M-334-26.3c-7.5,0-13.7,6.3-13.8,14c-0.1,3.8,1.3,7.5,4,10.2c2.6,2.7,6,4.2,9.7,4.2h0.2
																					c7.5,0,13.7-6.3,13.7-14.1c0.1-7.7-6.2-14.2-13.6-14.3H-334z"/>
																			</defs>
																			<clipPath id="SVGID_82_">
																				<use xlink:href="#SVGID_81_"  style="overflow:visible;"/>
																			</clipPath>
																			<g class="st42">
																				<g>
																					<defs>
																						<rect id="SVGID_83_" x="-1332.2" y="-825.9" width="3166.2" height="2152.6"/>
																					</defs>
																					<clipPath id="SVGID_84_">
																						<use xlink:href="#SVGID_83_"  style="overflow:visible;"/>
																					</clipPath>
																					<rect x="-365.1" y="-43.8" class="st43" width="62.1" height="63.5"/>
																				</g>
																			</g>
																			<g class="st42">
																				<g>
																					<defs>
																						<rect id="SVGID_85_" x="-382.5" y="-58.1" width="98.6" height="78.4"/>
																					</defs>
																					<clipPath id="SVGID_86_">
																						<use xlink:href="#SVGID_85_"  style="overflow:visible;"/>
																					</clipPath>
																					<g class="st44">
																						<g>
																							<defs>
																								<rect id="SVGID_87_" x="-1332.2" y="-825.9" width="3166.2" height="2152.6"/>
																							</defs>
																							<clipPath id="SVGID_88_">
																								<use xlink:href="#SVGID_87_"  style="overflow:visible;"/>
																							</clipPath>
																							<g class="st45">
																								<g class="st21">
																									<g>
																										<defs>
																											<rect id="SVGID_89_" x="-382.5" y="-58.6" width="98.9" height="79.2"/>
																										</defs>
																										<clipPath id="SVGID_90_">
																											<use xlink:href="#SVGID_89_"  style="overflow:visible;"/>
																										</clipPath>
																										<g class="st46">
																											<g>
																												<defs>
																													<rect id="SVGID_91_" x="-382.5" y="-58.6" width="98.9" height="79.2"/>
																												</defs>
																												<clipPath id="SVGID_92_">
																													<use xlink:href="#SVGID_91_"  style="overflow:visible;"/>
																												</clipPath>
																												<rect x="-393.5" y="-69.1" class="st47" width="120.6" height="100.4"/>
																											</g>
																										</g>
																									</g>
																								</g>
																							</g>
																						</g>
																					</g>
																				</g>
																			</g>
																		</g>
																	</g>
																</g>
															</g>
														</g>
													</g>
												</g>
											</g>
										</g>
									</g>
								</g>
							</g>
						</g>
					</g>
				</g>
			</g>
		</g>
	</g>
</g>
<path class="st24" d="M-355.1,20.2h-6.5l-0.1,0.1h-0.4c-0.2,0-0.3,0-0.5,0c-0.4,0-0.7,0-1,0c-1.2,0-2.4,0-3.6,0c-1.4,0-2.7,0-4.1,0
	c-2,0-3.7,0-5.2,0h-0.1c-1.6,0-3-0.6-4.1-1.7s-1.7-2.7-1.7-4.4c0.1-5.6,0-11.4,0-16.9c0-2.2,0-4.3,0-6.4c0-2.6,0-5.3,0-7.9
	c0-7,0-14.1,0-21.2c0-1.7,0.6-3.3,1.7-4.4c1.1-1.1,2.6-1.8,4.2-1.8h0.1c2.9,0,6,0,9.8,0c2.1,0,4.2,0,6.3,0c2.1,0,4.2,0,6.3,0h0.4
	l0.1-0.1c0.2-0.6,0.6-1.2,0.9-1.6l0.1-0.2c0.4-0.7,0.9-2.2,1.3-3.6c0.6-2,1.2-3.9,2-5c0.6-0.8,1.3-1.7,2.2-2.3
	c0.8-0.6,1.7-0.7,2.4-0.7c5.3,0,19.7,0,19.7,0c0.3,0,0.6-0.1,0.9-0.1c2.3,0,3.7,1.6,4.5,2.8c1.1,1.6,2.1,4.4,3.1,7
	c0.5,1.4,1,2.8,1.4,3.7l0.1,0.1h0.1h0.3c0.5,0,1.1,0,1.6,0c1,0,2.1,0,3.1,0h0.1l0.1-0.1h5.6l0.2,0.1h0.1c0.8,0,1.7,0,2.5,0h2.9
	c0.3,0,1.2,0,1.2,0l0.1-0.1h5.7l0.1,0.1h0.1c0.2,0,0.4,0,0.6,0c0.3,0,0.5,0,0.8,0h0.5c3.2,0,5.6,2.5,5.6,5.8c0,4.1,0,8.1,0,12.2v0.4
	c0,4.5,0,9,0,13.5c0,8.7,0,17.7,0,26.8c0,2-0.8,3.6-2.3,4.8c-0.9,0.7-2,1.1-3.1,1.1h-2.9c-3.7,0-7.3,0-11,0h-6.7c-0.6,0-1.1,0-1.6,0
	h-0.7l-0.2,0.1h-0.5c-0.4,0-0.8-0.1-1.2-0.1c-0.3,0-0.7,0-1,0l-0.6,0.1l-0.1-0.1h-4.9c-11,0-22.1,0-33.1,0c-0.1,0-0.3,0-0.5,0
	c-0.1,0-0.2,0-0.3,0h-0.6H-355.1z M-359.9,13.1L-359.9,13.1c0.8,0.1,1.6,0.1,2.4,0.1s1.6,0,2.4-0.1h0.1h0.1h1.4h0.3c0.3,0,0.6,0,1,0
	c0.3,0,0.6,0,0.9,0c0.4,0,0.7,0,1,0c9.3,0,18.7,0,28,0h16.8h14.6v-0.2c0-9.6,0-19.3,0-28.9v-21.3h-0.2c-2.2,0-4.4,0-6.6,0h-2.6h-0.4
	h-0.6h-0.4h-0.6h-3.1h-1.1l0,0c-0.6,0-1.2-0.1-1.9-0.1c-0.6,0-1.2,0-1.9,0.1l0,0h-1.1h-1.5h-0.5l0,0c-0.1,0-0.1,0-0.2,0l0,0
	l-0.2,0.1h-0.5h-0.2c-0.1,0-0.2,0-0.3,0h-36.9c-0.2,0-0.5,0-0.7,0h-0.9h-0.2c-0.1,0-0.2,0-0.3,0c-0.1,0-0.2,0-0.2,0h-0.1h-1.3h-0.2
	c-0.2,0-0.4,0-0.5,0s-0.1,0-0.2,0l-0.7,0.1l-0.2-0.2h-0.1c-0.2,0-0.3,0.1-0.5,0.1h-0.1h-0.1h-0.1h-0.1h-0.2h-0.7h-16.5
	c0,0,0,26.4,0,39.6v2.9c0,2.6,0,5.2,0,7.8v0.2h0.2c1.4,0,2.9,0,4.3,0h5c0.5,0,1.1,0,1.6,0h0.9h0.2c0.4,0,0.8,0,1.3,0s1,0,1.5,0h0.5
	h0.2V13.1z M-328.4-44.4c1.8,0,3.5,0,5.3,0h0.3l-0.1-0.3c-0.2-0.7-0.5-1.5-0.7-2.3c-0.4-1.4-1-3.2-1.4-3.9l-0.1-0.1h-0.1
	c-3.1,0-6.1,0-9.1,0c-3.1,0-6.1,0-9.2,0h-0.1l-0.1,0.1c-0.4,0.7-1,2.4-1.4,3.8c-0.3,0.8-0.5,1.6-0.7,2.3l-0.1,0.3h0.3
	c2.4,0,4.9,0,7.3,0h2.5h1.5L-328.4-44.4z"/>
<g>
	<g>
		<defs>
			<rect id="SVGID_93_" x="21.5" y="346.4" width="128.1" height="128.1"/>
		</defs>
		<clipPath id="SVGID_94_">
			<use xlink:href="#SVGID_93_"  style="overflow:visible;"/>
		</clipPath>
		<g class="st48">
			<defs>
				<rect id="SVGID_95_" x="-859.8" y="-734.9" width="4500.2" height="3059.5"/>
			</defs>
			<clipPath id="SVGID_96_">
				<use xlink:href="#SVGID_95_"  style="overflow:visible;"/>
			</clipPath>
			<g class="st49">
				<g>
					<defs>
						<rect id="SVGID_97_" x="21.5" y="346.4" width="128.1" height="128.1"/>
					</defs>
					<clipPath id="SVGID_98_">
						<use xlink:href="#SVGID_97_"  style="overflow:visible;"/>
					</clipPath>
					<g class="st50">
						<defs>
							<path id="SVGID_99_" d="M81.4,474.6l-0.3-0.1c-0.1,0-0.3-0.1-0.4-0.1c-0.1,0-0.2,0-0.2-0.1l0,0l0,0
								c-10-0.8-19.2-3.7-27.5-8.7c-16.4-10-26.6-24.6-30.3-43.3c-0.3-1.8-0.6-3.5-0.8-5.2l0-0.1c-0.1-0.8-0.2-1.5-0.3-2.3l0-0.2
								v-8.1l0.1-0.2c0-0.2,0.1-0.3,0.1-0.5l0-0.1c0-0.1,0.1-0.2,0.1-0.3c0.9-11.2,4.5-21.4,10.6-30.4c10.1-14.8,24.1-24,41.6-27.3
								c1.7-0.3,3.5-0.6,5.1-0.8l0.1,0c0.7-0.1,1.5-0.2,2.2-0.3l0.2,0h8.1l0.3,0.1c0.1,0,0.3,0.1,0.4,0.1c0.1,0,0.2,0.1,0.3,0.1
								l0.1,0c12.1,0.9,23.1,5,32.7,12.2c13.5,10,21.9,23.4,25.1,39.9c0.3,1.8,0.6,3.5,0.8,5.2c0.1,0.8,0.2,1.6,0.3,2.3l0,0.2v8
								l0,0.2c-0.1,0.5-0.1,1-0.2,1.5l0,0.1c-0.1,1.2-0.3,2.4-0.5,3.6c-1.9,12.7-7.2,23.9-15.6,33.3c-9.7,10.8-21.8,17.6-36,20.3
								c-1.8,0.3-3.5,0.6-5.2,0.8c-0.8,0.1-1.6,0.2-2.3,0.3l-0.2,0H81.4z M85.2,357.3c-28.9,0-52.5,23.7-52.7,52.9
								c-0.1,14.2,5.3,27.5,15.3,37.6c10,10.1,23.4,15.7,37.7,15.8l0.2,0c14.1,0,27.4-5.5,37.4-15.4c10-10,15.6-23.3,15.7-37.6
								c0.2-29.1-23.6-53-53-53.3L85.2,357.3z"/>
						</defs>
						<clipPath id="SVGID_100_">
							<use xlink:href="#SVGID_99_"  style="overflow:visible;"/>
						</clipPath>
						<g class="st51">
							<defs>
								<rect id="SVGID_101_" x="21.5" y="346.4" width="131.3" height="128.1"/>
							</defs>
							<clipPath id="SVGID_102_">
								<use xlink:href="#SVGID_101_"  style="overflow:visible;"/>
							</clipPath>
							<rect x="5.9" y="330.8" class="st52" width="159.4" height="159.4"/>
						</g>
					</g>
				</g>
			</g>
		</g>
	</g>
	<g>
		<defs>
			<path id="SVGID_103_" d="M112.1,442.3c-0.2,0-0.4,0-0.6,0c-0.8-0.1-1.6-0.3-2.3-0.6c-10.7-4.5-19.5-8.7-27.4-13.3
				c-6-3.5-10.6-8.1-14.1-14c-4.6-8-9-17-13.4-27.5c-1.4-3.4,0-5.6,0.9-6.6c1-1,2.3-1.6,3.7-1.6c0.9,0,1.8,0.2,2.7,0.6
				c9,3.7,19.6,8.4,29.7,14.7c4.4,2.7,7.8,6.2,10.6,10.6c6.2,10,10.9,20.6,14.7,29.6c0.3,0.7,0.4,1.3,0.5,1.7l0,0.1
				c0,0.1,0,0.2,0,0.2l0.1,0.3l0,0.3c0,1.5-0.6,2.9-1.6,4C114.8,441.8,113.5,442.3,112.1,442.3z M70.5,396.3
				c3,6.2,5.7,11.1,8.6,15.5c1.4,2.1,3.1,3.9,5.2,5.2c4.4,2.9,9.3,5.6,15.5,8.6l1.6,0.8l-0.8-1.6c-2.3-4.9-5.5-11.2-9.7-17
				c-0.9-1.3-2-2.3-3.1-3c-4.7-2.8-9.8-5.7-16-9.1c-0.2-0.1-0.3-0.2-0.5-0.3l-1.7-0.9L70.5,396.3z"/>
		</defs>
		<clipPath id="SVGID_104_">
			<use xlink:href="#SVGID_103_"  style="overflow:visible;"/>
		</clipPath>
		<g class="st53">
			<defs>
				<rect id="SVGID_105_" x="-859.8" y="-734.9" width="4500.2" height="3059.5"/>
			</defs>
			<clipPath id="SVGID_106_">
				<use xlink:href="#SVGID_105_"  style="overflow:visible;"/>
			</clipPath>
			<rect x="38.1" y="363" class="st54" width="94.8" height="94.9"/>
		</g>
	</g>
</g>
<g>
	<defs>
		<rect id="SVGID_107_" x="-981.2" y="-777.2" width="5405.3" height="3674.8"/>
	</defs>
	<clipPath id="SVGID_108_">
		<use xlink:href="#SVGID_107_"  style="overflow:visible;"/>
	</clipPath>
</g>
<g>
	<g>
		<defs>
			<path id="SVGID_109_" d="M807.3,453.2c-8.3,0-16.1-3.4-22-9.5c-5.9-6.1-9.1-14.1-9-22.6c0-17.6,13.8-32,30.9-32.1l0.3,0
				c17.1,0,31,14.4,31.1,32c0,17.6-13.7,32-30.7,32.3L807.3,453.2L807.3,453.2z M807.3,399c-11.6,0-21.2,9.7-21.4,21.6
				c-0.1,5.9,2.1,11.6,6.1,15.9c4,4.2,9.4,6.6,15,6.6h0.3c11.6,0,21.2-9.8,21.3-21.9c0.1-11.9-9.5-22-21.1-22.2L807.3,399z"/>
		</defs>
		<clipPath id="SVGID_110_">
			<use xlink:href="#SVGID_109_"  style="overflow:visible;"/>
		</clipPath>
		<g class="st55">
			<defs>
				<rect id="SVGID_111_" x="-738.8" y="-839.5" width="4904.3" height="3334.2"/>
			</defs>
			<clipPath id="SVGID_112_">
				<use xlink:href="#SVGID_111_"  style="overflow:visible;"/>
			</clipPath>
			<rect x="759.2" y="371.9" class="st56" width="96.3" height="98.3"/>
		</g>
	</g>
	<g>
		<defs>
			<rect id="SVGID_113_" x="732.4" y="349.8" width="152.7" height="121.5"/>
		</defs>
		<clipPath id="SVGID_114_">
			<use xlink:href="#SVGID_113_"  style="overflow:visible;"/>
		</clipPath>
		<g class="st57">
			<defs>
				<rect id="SVGID_115_" x="-738.8" y="-839.5" width="4904.3" height="3334.2"/>
			</defs>
			<clipPath id="SVGID_116_">
				<use xlink:href="#SVGID_115_"  style="overflow:visible;"/>
			</clipPath>
			<g class="st58">
				<g>
					<defs>
						<rect id="SVGID_117_" x="732.4" y="349.1" width="153.3" height="122.6"/>
					</defs>
					<clipPath id="SVGID_118_">
						<use xlink:href="#SVGID_117_"  style="overflow:visible;"/>
					</clipPath>
					<g class="st59">
						<defs>
							<path id="SVGID_119_" d="M774.7,471.1l-10.1,0l-0.2,0.1l-0.6,0c-0.3,0-0.5,0-0.8,0c-0.6,0-1.1,0-1.6,0c-1.8,0-3.7,0-5.5,0
								c-2.1,0-4.2,0-6.3,0c-3.1,0-5.7,0-8.1,0.1l-0.2,0c-2.4,0-4.7-0.9-6.4-2.7c-1.7-1.8-2.6-4.2-2.6-6.8
								c0.1-8.7,0.1-17.6,0.1-26.2c0-3.3,0-6.6,0-10c0-4.1,0-8.1,0-12.2c0-10.8,0-21.9-0.1-32.8c0-2.6,0.9-5.1,2.6-6.8
								c1.7-1.8,4-2.8,6.6-2.8l0.1,0c4.4,0,9.2,0.1,15.2,0.1c3.2,0,6.5,0,9.7,0c3.3,0,6.5,0,9.7,0l0.7,0l0.1-0.2
								c0.4-0.9,0.9-1.8,1.3-2.6l0.2-0.3c0.6-1,1.4-3.5,2.1-5.6c1-3.1,1.9-6.1,3.1-7.8c0.9-1.3,1.9-2.6,3.4-3.6
								c1.3-1,2.7-1.1,3.7-1.1c8.2,0,30.5,0,30.5,0c0.5-0.1,0.9-0.1,1.3-0.1c3.5,0,5.7,2.5,7,4.4c1.8,2.5,3.3,6.8,4.7,10.9
								c0.8,2.2,1.5,4.3,2.2,5.7l0.1,0.2l0.2,0l0.5,0c0.8,0,1.7,0,2.6,0c1.6,0,3.2,0,4.8,0l0.2,0l0.1-0.2h8.7l0.3,0.2l0.1,0
								c1.3,0,2.6,0,3.9,0l4.5,0c0.5,0,1.9,0,1.9,0l0.1-0.2h8.8l0.2,0.2l0.1,0c0.3,0,0.7,0,1,0c0.4,0,0.8,0,1.2,0l0.8,0
								c4.9,0,8.7,3.9,8.7,9c0,6.3,0,12.6,0,18.9l0,0.7c0,7,0,14,0,21c0,13.4,0,27.4,0.1,41.5c0,3.1-1.2,5.6-3.5,7.4
								c-1.4,1.1-3.1,1.7-4.8,1.7l-4.5,0c-5.7,0-11.4,0-17.1,0c0,0-10.4,0-10.4,0c-0.9,0-1.7,0-2.5,0l-1.1,0l-0.2,0.1l-0.7-0.1
								c-0.6-0.1-1.2-0.1-1.8-0.1c-0.5,0-1,0-1.5,0.1l-0.9,0.1l-0.1-0.1l-7.5,0c-17.1,0-34.2,0-51.3,0c-0.2,0-0.5,0-0.8,0.1
								c-0.2,0-0.3,0-0.5,0l-0.9,0.1L774.7,471.1z M767.4,460.1L767.4,460.1c1.3,0.1,2.6,0.1,3.8,0.1c1.2,0,2.5,0,3.7-0.1l0.1,0
								l0.2,0l2.2,0l0.4,0c0.5,0,1,0.1,1.6,0.1c0.5,0,1,0,1.5,0c0.6,0,1.1,0,1.6,0c14.5,0,28.9,0,43.4,0l26.1,0l22.6,0v-0.3
								c0-14.9,0-29.9,0-44.8l0-33l-0.3,0c-3.4,0-6.9,0-10.2,0l-4,0l-0.6,0l-0.9,0l-0.7,0.1l-0.9,0l-4.7,0l-1.8,0l-0.1,0
								c-0.9-0.1-1.9-0.1-2.9-0.1c-0.9,0-1.9,0-2.9,0.1l-0.1,0l-1.7,0l-2.4,0l-0.8-0.1l0,0c-0.1,0-0.2,0-0.3,0l-0.1,0l-0.3,0.1
								l-0.8,0l-0.3,0c-0.2,0-0.4,0-0.5,0l-57.1,0c-0.4,0-0.7,0-1.1,0l-1.3,0l-0.3-0.1c-0.2,0-0.4-0.1-0.5-0.1c-0.1,0-0.2,0-0.4,0
								l-0.1,0l-1.9,0.1l-0.3,0c-0.3,0-0.6-0.1-0.8-0.1c-0.1,0-0.2,0-0.3,0l-1,0.2l-0.3-0.3l-0.2,0c-0.2,0.1-0.5,0.1-0.7,0.1l-0.2,0
								l-0.2,0c-0.1,0-0.1,0-0.2,0c-0.1,0-0.1,0-0.2,0l-0.2,0.1l-1.1,0l-25.6,0c0,0,0,41,0,61.3l0,4.6c0,4,0,8,0,12l0,0.3l0.3,0
								c2.2,0,4.4,0,6.6,0l7.8,0c0.8,0,1.7,0,2.5,0l1.3,0l0.3,0c0.6,0,1.2,0.1,2,0.1c0.8,0,1.6,0,2.3,0l0.8,0H767.4z M816.1,370.9
								c2.7,0,5.5,0,8.2,0l0.4,0l-0.2-0.4c-0.4-1.1-0.7-2.3-1.1-3.5c-0.7-2.2-1.5-4.9-2.2-6.1l-0.1-0.2l-0.2,0c-4.7,0-9.4,0-14.1,0
								c-4.7,0-9.5,0-14.2,0l-0.2,0l-0.1,0.2c-0.7,1.1-1.5,3.8-2.1,6c-0.4,1.3-0.8,2.5-1.2,3.6l-0.2,0.4h0.4c3.8,0,7.5,0,11.3,0
								l3.8,0l2.4,0L816.1,370.9z"/>
						</defs>
						<clipPath id="SVGID_120_">
							<use xlink:href="#SVGID_119_"  style="overflow:visible;"/>
						</clipPath>
						<g class="st60">
							<defs>
								<rect id="SVGID_121_" x="732.4" y="349.1" width="153.3" height="122.6"/>
							</defs>
							<clipPath id="SVGID_122_">
								<use xlink:href="#SVGID_121_"  style="overflow:visible;"/>
							</clipPath>
							<rect x="715.4" y="332.7" class="st61" width="186.8" height="155.5"/>
						</g>
					</g>
				</g>
			</g>
		</g>
	</g>
</g>
<g>
	<g id="Udo2SE.tif">
		<g>
			<path class="st62" d="M382.5,481.9l-0.5-0.3c-3.1-1.7-3.1-4.8-3.1-5.8c0-25.7-0.1-51.9-0.2-77.2l-0.1-18.7c0-4.1,1.8-6,5.9-6
				l7.5,0c2,0,4.1,0,6.6,0c2.6,0,4.7,1.6,5.1,4.1c0.4,2.3-0.8,4.7-2.9,5.5c-0.9,0.4-1.9,0.4-2.6,0.4c-2.1,0-3.6,0-5.1,0l-4.3,0
				l0.2,87.7l116.4-0.3l-0.2-87.7c-1,0-2,0-3,0c-1.2,0-2.4,0-3.7,0c-1.8,0-3.5,0-5.3,0c-1.6,0-3-0.6-3.9-1.6
				c-0.9-0.9-1.4-2.2-1.3-3.6c0.1-2.7,2.3-4.8,4.9-4.8c3.1,0,6.2,0,9.2-0.1c2.8,0,5.5,0,8.2,0c3,0,5,2.2,5,5.5
				c0,7.2,0,14.4,0.1,21.6l0.1,19.4c0,18.1,0.1,36.9,0.2,55.3c0,1.8-0.3,4.4-3.1,6l-0.5,0.3L382.5,481.9z"/>
		</g>
		<g>
			<path class="st62" d="M412.5,401.2c-2.8,0-5-2.3-5-5.5c0-3.8,0-7.7,0-11.4l0-3.9l0-5c0-4.3,0-8.8,0-13.3
				c0-11.6,7.3-20.5,18.7-22.7c0.1,0,0.1-0.1,0.2-0.1l0.4-0.2l40.2-0.1l0.3,0.1c0.3,0.1,0.6,0.1,0.8,0.2c0.6,0.1,1.3,0.3,1.9,0.5
				c9.9,2.6,16.5,11.2,16.7,21.5c0.1,8.5,0.1,17.1,0.1,25.5c0,2.9,0,5.8,0,8.7c0,3.2-2.1,5.5-5,5.5l-0.1,0c-3,0-5-2.2-5-5.5
				c0-4.3,0-8.5,0-12.8c0-6.9,0-14.1-0.1-21.1c0-6-3.8-10.8-9.6-12.1c-0.9-0.2-1.9-0.3-3-0.3c-7.5,0-14.4,0-20.9,0
				c-4.2,0-8.4,0-12.6,0c-7.5,0-12.7,5.3-12.7,12.9c0,7,0,14,0.1,20.9c0,4.1,0,8.2,0,12.2c0,4-2.3,5.2-3.6,5.6
				C413.5,401.1,413,401.2,412.5,401.2z"/>
		</g>
		<g>
			<path class="st62" d="M447.2,452.9c-1.8,0-3.3-1.2-4.2-2.1c-1.8-1.8-3.7-3.6-5.5-5.4c-4.5-4.5-9.2-9.1-13.7-13.7
				c-4.6-4.7-5.9-10.6-3.9-17.1c2-6.4,6.3-10.5,12.6-11.7c1.1-0.2,2.2-0.3,3.3-0.3c4.2,0,8,1.6,11.3,4.7c0.4-0.4,0.9-0.8,1.3-1.2
				c2.9-2.3,6.4-3.5,10.1-3.5c8.1,0,15,5.8,16.4,13.9c1.1,6.2-0.6,11.5-5,15.8c-4.2,4.2-8.5,8.5-12.7,12.7c-2,2-3.9,3.9-5.9,5.9
				C450.5,451.7,449.1,452.9,447.2,452.9z M435.7,412.6c-0.4,0-0.8,0-1.1,0.1c-2.6,0.5-4.2,2.1-5,4.7c-0.9,2.9-0.3,5.3,1.6,7.3
				c3.2,3.2,6.5,6.5,9.6,9.6c1.9,1.8,3.7,3.7,5.6,5.5c0.3,0.3,0.6,0.6,0.8,0.8c1.3-1.3,2.6-2.6,3.9-3.9c3.9-3.9,7.8-7.9,11.8-11.8
				c1.9-1.9,2.6-4,2.1-6.7c-0.6-3.3-3.1-5.6-6.1-5.7c-0.1,0-0.1,0-0.2,0c-3.1,0-5.7,2.1-6.3,5.1c-0.1,0.3-0.1,0.6-0.1,1
				c0,0.4-0.1,0.8-0.1,1.2c-0.4,2.5-2.5,4.3-4.9,4.3l-0.1,0c-2.4,0-4.4-1.8-4.9-4.2c-0.1-0.4-0.1-0.8-0.1-1.1c0-0.1,0-0.2,0-0.3
				C441.8,415.3,438.9,412.6,435.7,412.6z"/>
		</g>
	</g>
	<rect x="394.5" y="373.7" class="st62" width="109.9" height="10"/>
</g>
</svg>
