<?xml version="1.0" encoding="UTF-8"?>
<svg width="169px" height="37px" viewBox="0 0 169 37" version="1.1" xmlns="http://www.w3.org/2000/svg" xmlns:xlink="http://www.w3.org/1999/xlink">
    <!-- Generator: Sketch 43.1 (39012) - http://www.bohemiancoding.com/sketch -->
    <title>Header Logo</title>
    <desc>Created with Sketch.</desc>
    <defs>
        <polygon id="path-1" points="0 46.8946237 137.178129 46.8946237 137.178129 -0.000228032345 0 -0.000228032345"></polygon>
    </defs>
    <g id="Welcome" stroke="none" stroke-width="1" fill="none" fill-rule="evenodd">
        <g id="Artboard" transform="translate(-25.000000, -14.000000)">
            <g id="Header-Logo" transform="translate(25.000000, 10.000000)">
                <g id="Page-1" transform="translate(30.968586, 0.000000)">
                    <path d="M26.0110503,23.5112749 C27.4130387,23.5112749 28.3701326,22.6949191 28.3701326,21.4099569 C28.3701326,20.0793881 27.4130387,19.2858356 26.0110503,19.2858356 L23.8618669,19.2858356 L23.8618669,23.5112749 L26.0110503,23.5112749 Z M23.8379111,26.6866253 L23.8379111,32.6405499 L20.1475671,32.6405499 L20.1475671,16.0865418 L26.3840773,16.0865418 C29.7481652,16.0865418 32.0604766,18.3052965 32.0604766,21.3871536 C32.0604766,24.5157574 29.7481652,26.6866253 26.3840773,26.6866253 L23.8379111,26.6866253 Z" id="Fill-1" fill="#4A4A4A"></path>
                    <path d="M47.9226816,29.349017 C50.2110371,29.349017 52.6876173,27.8075183 52.6876173,24.3516881 C52.6876173,20.895858 50.2110371,19.3326962 47.9226816,19.3326962 C45.6092295,19.3326962 43.1337901,20.895858 43.1337901,24.3516881 C43.1337901,27.8075183 45.6092295,29.349017 47.9226816,29.349017 M47.9226816,15.7366261 C52.5701194,15.7366261 56.5182742,19.1217663 56.5182742,24.3756315 C56.5182742,29.6055534 52.5701194,32.9895534 47.9226816,32.9895534 C43.2501471,32.9895534 39.3019924,29.6055534 39.3019924,24.3756315 C39.3019924,19.1217663 43.2501471,15.7366261 47.9226816,15.7366261" id="Fill-3" fill="#4A4A4A"></path>
                    <polygon id="Fill-5" fill="#4A4A4A" points="80.0887921 32.6403218 80.0887921 21.6662652 75.7664696 32.6403218 72.7765495 32.6403218 68.4553677 21.8076453 68.4553677 32.6403218 64.9509669 32.6403218 64.9509669 16.0863137 69.7626735 16.0863137 74.3177101 27.2701601 78.6400327 16.0863137 83.70955 16.0863137 83.70955 32.6403218"></polygon>
                    <mask id="mask-2" fill="white">
                        <use xlink:href="#path-1"></use>
                    </mask>
                    <g id="Clip-8"></g>
                    <polygon id="Fill-7" fill="#4A4A4A" mask="url(#mask-2)" points="93.0981958 32.6403218 96.8364516 32.6403218 96.8364516 16.0863137 93.0981958 16.0863137"></polygon>
                    <polygon id="Fill-9" fill="#4A4A4A" mask="url(#mask-2)" points="106.203651 32.6403218 106.203651 16.0863137 109.892854 16.0863137 109.892854 29.1149418 117.041969 29.1149418 117.041969 32.6403218"></polygon>
                    <polygon id="Fill-10" fill="#4A4A4A" mask="url(#mask-2)" points="121.924745 16.0868838 126.245926 16.0868838 129.63397 22.2277949 133.067644 16.0868838 137.177786 16.0868838 131.361074 25.7292315 131.361074 32.6408919 127.67073 32.6408919 127.67073 25.7292315"></polygon>
                </g>
                <g id="Page-1" transform="translate(0.000000, 4.433962)" fill="#EC2F37">
                    <polygon id="Fill-1" points="13.5845916 33.8921434 16.0381885 33.8921434 16.0381885 18.7687849 13.5845916 18.7687849"></polygon>
                    <polygon id="Fill-2" points="1.49719843 12.9843264 26.0252037 27.2208925 27.255099 25.0934774 2.72709372 10.8569113"></polygon>
                    <path d="M21.1236728,-0.000177358491 L14.7768822,3.68355849 L8.47698691,0.0273132075 L8.47698691,2.86948302 L12.3285942,5.1042 L0.884374346,11.7471623 L0.884374346,28.1466151 L14.8202382,36.4735962 L28.6685052,27.0124075 L28.6685052,11.7471623 L17.2251702,5.1042 L21.1289817,2.83755849 L21.1289817,0.0113509434 L21.1236728,-0.000177358491 Z M3.3379712,26.749917 L3.3379712,13.1651434 L14.7768822,6.52484151 L26.2157932,13.1651434 L26.2157932,25.711483 L14.7326414,33.5578226 L3.3379712,26.749917 Z" id="Fill-3"></path>
                </g>
            </g>
        </g>
    </g>
</svg>
