<?xml version="1.0" encoding="utf-8"?>
<!-- Generator: Adobe Illustrator 21.0.0, SVG Export Plug-In . SVG Version: 6.00 Build 0)  -->
<svg version="1.1" id="Layer_1" xmlns="http://www.w3.org/2000/svg" xmlns:xlink="http://www.w3.org/1999/xlink" x="0px" y="0px"
	 viewBox="0 0 160 50" style="enable-background:new 0 0 160 50;" xml:space="preserve">
<style type="text/css">
	.st0{fill:#C5A6C2;}
	.st1{fill:#FFFBF9;}
	.st2{fill:#E8E3F1;}
	.st3{fill:#FCDEDE;}
	.st4{fill:none;stroke:#E5B5D1;stroke-width:2.7623;stroke-miterlimit:10;}
</style>
<g>
	<path class="st0" d="M57.8,28v5.2h-3.2V18.7H60c2.9,0,5,1.9,5,4.6c0,2.7-2,4.6-5,4.6H57.8z M59.7,25.2c1.2,0,2.1-0.7,2.1-1.8
		c0-1.2-0.8-1.9-2.1-1.9h-1.9v3.7H59.7z"/>
	<path class="st0" d="M78.9,18.4c4.1,0,7.5,3,7.5,7.6c0,4.6-3.5,7.6-7.5,7.6c-4.1,0-7.6-3-7.6-7.6C71.3,21.4,74.8,18.4,78.9,18.4z
		 M78.9,30.4c2,0,4.2-1.4,4.2-4.4s-2.2-4.4-4.2-4.4c-2,0-4.2,1.4-4.2,4.4S76.8,30.4,78.9,30.4z"/>
	<path class="st0" d="M107,33.2v-9.6l-3.8,9.6h-2.6l-3.8-9.5v9.5h-3.1V18.7H98l4,9.8l3.8-9.8h4.4v14.5H107z"/>
	<path class="st0" d="M118.4,33.2V18.7h3.3v14.5H118.4z"/>
	<path class="st0" d="M129.9,33.2V18.7h3.2v11.4h6.3v3.1H129.9z"/>
	<path class="st0" d="M143.7,18.7h3.8l3,5.4l3-5.4h3.6l-5.1,8.5v6.1h-3.2v-6.1L143.7,18.7z"/>
</g>
<g>
	<polygon class="st1" points="6.2,18.5 32.9,34.1 32.9,18.5 18.1,10 5.2,17.7 	"/>
	<polygon class="st2" points="18.6,43.9 18.6,26.7 32.6,34.7 	"/>
	<polygon class="st3" points="4.4,20.1 4.4,35.5 18.6,43.9 18.6,26.7 4.4,18.5 	"/>
	<g>
		<g>
			<g>
				<rect x="17.3" y="25.6" class="st0" width="2.8" height="17"/>
			</g>
		</g>
		<g>
			<g>
				<path class="st4" d="M32.9,18.5"/>
			</g>
		</g>
		<g>
			<g>
				<path class="st4" d="M18.6,26.7"/>
			</g>
		</g>
		<g>
			<g>
				
					<rect x="16.8" y="9.9" transform="matrix(0.5012 -0.8654 0.8654 0.5012 -13.36 28.6252)" class="st0" width="2.8" height="31.9"/>
			</g>
		</g>
	</g>
	<path class="st0" d="M21.4,10.2l4.4-2.5V4.5l0,0l-7.1,4.1l-7.1-4.1v3.2l4.3,2.5L3,17.7v18.4l15.7,9.4l15.6-10.6V17.7L21.4,10.2z
		 M31.5,33.4l-12.9,8.8L5.7,34.6V19.3l12.9-7.5l12.9,7.5V33.4z"/>
</g>
</svg>
